<svg width="100" height="100" viewBox="0 0 100 100" fill="none" xmlns="http://www.w3.org/2000/svg">
<g clip-path="url(#clip0_742_440)">
<path d="M50.0003 54.5455C65.0626 54.5455 77.273 42.3351 77.273 27.2727C77.273 12.2104 65.0626 0 50.0003 0C34.938 0 22.7275 12.2104 22.7275 27.2727C22.7275 42.3351 34.938 54.5455 50.0003 54.5455Z" fill="#E7EDF1"/>
<path d="M88.8139 69.3405C84.517 67.1365 77.6721 64.0449 69.4869 61.8364C68.3506 61.5168 67.1521 62.1494 66.7569 63.2635L57.4413 89.2523L54.6209 75.1466L58.9756 62.0827C59.0898 61.7408 59.1207 61.3766 59.0659 61.0203C59.0111 60.664 58.8721 60.3259 58.6605 60.0341C58.4504 59.7418 58.1737 59.5038 57.8534 59.3398C57.533 59.1758 57.1782 59.0904 56.8183 59.0908H43.1819C42.822 59.0904 42.4672 59.1758 42.1468 59.3398C41.8265 59.5038 41.5498 59.7418 41.3397 60.0341C41.128 60.3259 40.989 60.6639 40.9342 61.0203C40.8794 61.3766 40.9104 61.7408 41.0246 62.0827L45.3793 75.1466L42.5589 89.2523L33.2433 63.2635C32.8483 62.1494 31.6453 61.5189 30.5133 61.8364C22.3279 64.0449 15.483 67.1365 11.1863 69.3405C4.288 72.8827 0 79.8739 0 87.5821V90.9092C0 95.9229 4.07941 100 9.09099 100H90.9092C95.9208 100 100 95.9231 100 90.9092V87.5821C100 79.8739 95.712 72.8827 88.8139 69.3405Z" fill="#0B8260"/>
</g>
<defs>
<clipPath id="clip0_742_440">
<rect width="100" height="100" fill="white"/>
</clipPath>
</defs>
</svg>
